<?xml version="1.0" encoding="UTF-8"?>
<svg xmlns="http://www.w3.org/2000/svg" xmlns:xlink="http://www.w3.org/1999/xlink" viewBox="0 0 24 24" width="24px" height="24px">
<g id="surface176763913">
<path style=" stroke:none;fill-rule:nonzero;fill:rgb(18.039216%,80.000001%,44.313726%);fill-opacity:1;" d="M 18 21 L 20 21 C 21.648438 21 23 19.648438 23 18 L 23 9.921875 L 17 14.601562 L 17 20 C 17 20.550781 17.449219 21 18 21 Z M 19.5 3 C 18.710938 3 17.960938 3.261719 17.339844 3.738281 L 17 4.011719 L 17 12.070312 L 23 7.378906 L 23 6.5 C 23 4.570312 21.429688 3 19.5 3 Z M 9 5.570312 L 9 13.628906 L 11.386719 15.488281 C 11.746094 15.773438 12.253906 15.773438 12.613281 15.488281 L 15 13.628906 L 15 5.570312 L 12 7.910156 Z M 1 18 C 1 19.648438 2.351562 21 4 21 L 6 21 C 6.550781 21 7 20.550781 7 20 L 7 14.601562 L 1 9.921875 Z M 4.5 3 C 2.570312 3 1 4.570312 1 6.5 L 1 7.378906 L 7 12.070312 L 7 4.011719 L 6.660156 3.738281 C 6.039062 3.261719 5.289062 3 4.5 3 Z M 4.5 3 "/>
</g>
</svg>
