<?xml version="1.0" encoding="UTF-8"?>
<svg xmlns="http://www.w3.org/2000/svg" xmlns:xlink="http://www.w3.org/1999/xlink" viewBox="0 0 100 100" width="100px" height="100px">
<g id="surface173737550">
<path style=" stroke:none;fill-rule:nonzero;fill:rgb(10.196079%,73.725492%,61.176473%);fill-opacity:1;" d="M 49.980469 9.375 C 48.839844 9.375 47.699219 9.65625 46.714844 10.21875 L 15.746094 28.09375 C 13.746094 29.25 12.5 31.441406 12.5 33.753906 L 12.5 66.1875 C 12.5 68.53125 13.746094 70.6875 15.746094 71.84375 L 23.878906 76.53125 C 27.816406 78.46875 29.21875 78.464844 31 78.464844 C 36.84375 78.464844 40.183594 74.9375 40.183594 68.8125 L 40.183594 35.34375 C 40.183594 34.84375 39.78125 34.4375 39.28125 34.4375 L 35.375 34.4375 C 34.84375 34.4375 34.464844 34.84375 34.464844 35.34375 L 34.464844 68.78125 C 34.464844 71.53125 31.625 74.21875 27.03125 71.9375 L 18.53125 67.027344 C 18.21875 66.871094 18.03125 66.53125 18.03125 66.1875 L 18.03125 33.78125 C 18.03125 33.40625 18.21875 33.089844 18.53125 32.902344 L 49.5 15.03125 C 49.78125 14.84375 50.15625 14.84375 50.46875 15.03125 L 81.4375 32.902344 C 81.75 33.089844 81.941406 33.410156 81.941406 33.753906 L 81.941406 66.1875 C 81.941406 66.53125 81.75 66.871094 81.46875 67.027344 L 50.46875 84.9375 C 50.1875 85.09375 49.78125 85.09375 49.5 84.9375 L 41.527344 80.21875 C 41.308594 80.0625 41.003906 80.03125 40.785156 80.15625 C 38.566406 81.40625 38.160156 81.5625 36.097656 82.28125 C 35.597656 82.4375 34.816406 82.75 36.378906 83.625 L 46.714844 89.753906 C 47.714844 90.316406 48.84375 90.625 49.96875 90.625 C 51.125 90.625 52.246094 90.316406 53.246094 89.753906 L 84.253906 71.84375 C 86.253906 70.6875 87.5 68.53125 87.5 66.1875 L 87.5 33.78125 C 87.5 31.4375 86.253906 29.28125 84.253906 28.125 L 53.246094 10.21875 C 52.261719 9.65625 51.121094 9.375 49.980469 9.375 Z M 58.3125 34.394531 C 49.46875 34.394531 44.191406 38.140625 44.191406 44.390625 C 44.191406 51.171875 49.433594 53.042969 57.933594 53.886719 C 68.089844 54.886719 68.871094 56.390625 68.871094 58.390625 C 68.871094 61.828125 66.09375 63.300781 59.5625 63.300781 C 51.34375 63.300781 49.53125 61.234375 48.9375 57.171875 C 48.875 56.734375 48.503906 56.421875 48.066406 56.421875 L 44.03125 56.421875 C 43.53125 56.421875 43.15625 56.832031 43.15625 57.300781 C 43.15625 62.519531 46 68.730469 59.5625 68.730469 C 69.375 68.730469 75 64.863281 75 58.113281 C 75 51.425781 70.46875 49.640625 60.96875 48.359375 C 51.3125 47.109375 50.339844 46.453125 50.339844 44.203125 C 50.339844 42.328125 51.1875 39.863281 58.3125 39.863281 C 64.65625 39.863281 67.03125 41.234375 68 45.515625 C 68.09375 45.921875 68.433594 46.234375 68.871094 46.234375 L 72.90625 46.234375 C 73.15625 46.234375 73.371094 46.109375 73.558594 45.921875 C 73.714844 45.765625 73.808594 45.515625 73.777344 45.234375 C 73.152344 37.859375 68.25 34.394531 58.3125 34.394531 Z M 58.3125 34.394531 "/>
</g>
</svg>
