<?xml version="1.0" standalone="no"?>
<!DOCTYPE svg PUBLIC "-//W3C//DTD SVG 20010904//EN"
 "http://www.w3.org/TR/2001/REC-SVG-20010904/DTD/svg10.dtd">
<svg version="1.0" xmlns="http://www.w3.org/2000/svg"
 width="512.000000pt" height="512.000000pt" viewBox="0 0 512.000000 512.000000"
 preserveAspectRatio="xMidYMid meet">

<g transform="translate(0.000000,512.000000) scale(0.100000,-0.100000)"
fill="#000000" stroke="none">
<path d="M1640 5099 c-379 -31 -759 -101 -1003 -185 -292 -101 -473 -227 -549
-381 l-33 -68 -3 -1830 c-3 -1688 -2 -1835 14 -1893 53 -201 269 -356 666
-476 327 -99 827 -166 1240 -166 l196 0 31 26 c43 36 58 89 38 136 -28 68 -44
72 -296 79 -394 12 -772 63 -1105 149 -267 69 -449 160 -517 259 l-24 35 -3
438 -3 439 43 -25 c69 -40 253 -110 393 -149 344 -96 768 -150 1192 -151 220
-1 233 0 260 20 34 26 58 83 49 120 -4 15 -22 42 -41 61 l-33 33 -129 0 c-367
0 -879 61 -1223 145 -248 61 -395 123 -466 196 l-39 40 -3 430 c-1 237 1 429
5 427 4 -2 35 -17 68 -34 307 -158 848 -264 1448 -283 786 -24 1491 80 1889
280 l77 39 3 -384 c3 -373 4 -385 24 -413 26 -34 83 -58 120 -49 15 4 42 22
61 41 l33 33 -2 1219 -3 1218 -28 57 c-146 297 -711 501 -1576 568 -156 12
-617 11 -771 -1z m960 -253 c288 -34 560 -92 749 -158 256 -89 431 -216 431
-313 0 -126 -279 -283 -670 -378 -537 -132 -1267 -153 -1870 -56 -555 89 -976
291 -946 455 9 46 81 122 162 170 253 150 691 258 1209 298 135 10 806 -3 935
-18z m-2248 -877 c324 -193 890 -310 1563 -326 681 -15 1303 84 1703 272 51
24 105 53 121 64 16 12 32 21 35 21 3 0 6 -199 6 -442 l0 -441 -43 -41 c-138
-133 -568 -263 -1037 -315 -302 -34 -817 -44 -1105 -21 -538 42 -1011 157
-1214 297 -96 67 -91 36 -91 531 0 237 2 432 5 432 2 0 28 -14 57 -31z"/>
<path d="M2616 1744 c-70 -22 -149 -103 -170 -174 -24 -80 -24 -1290 0 -1369
18 -61 77 -131 139 -164 l40 -22 1104 -3 c1234 -3 1159 -7 1244 68 25 23 54
62 68 92 l24 53 0 660 0 660 -28 57 c-30 61 -64 95 -131 131 l-41 22 -1100 2
c-956 2 -1106 0 -1149 -13z m425 -414 c71 -13 171 -63 203 -101 36 -42 35 -89
-3 -131 -38 -43 -88 -44 -149 -3 -45 30 -125 44 -177 31 -26 -7 -46 -41 -38
-63 3 -6 53 -30 111 -54 59 -23 124 -51 144 -61 174 -86 211 -295 76 -430 -69
-69 -108 -83 -233 -83 -103 0 -114 2 -177 32 -85 40 -155 104 -164 148 -8 45
18 93 62 111 44 18 65 12 129 -36 51 -39 107 -60 160 -60 42 0 93 34 101 66
10 40 -21 62 -176 124 -145 58 -180 82 -213 144 -30 57 -30 165 0 222 62 117
193 172 344 144z m928 -9 c261 -81 397 -384 281 -624 -26 -52 -26 -53 10 -94
49 -55 39 -127 -20 -158 -46 -24 -76 -18 -119 20 l-39 36 -33 -20 c-91 -52
-239 -66 -348 -32 -84 26 -137 60 -199 125 -230 243 -128 637 193 748 69 24
196 23 274 -1z m613 -10 l33 -29 3 -326 3 -326 89 0 c85 0 91 -2 122 -29 27
-24 33 -36 33 -71 0 -35 -6 -47 -33 -71 l-32 -29 -158 0 c-129 0 -162 3 -181
16 -48 34 -51 57 -51 441 0 321 2 362 18 393 32 65 101 79 154 31z"/>
<path d="M3790 1131 c-121 -24 -202 -120 -203 -241 -1 -72 17 -124 61 -172 53
-59 105 -82 182 -83 36 0 74 4 84 8 18 7 17 10 -11 40 -38 40 -46 71 -29 112
30 70 102 86 160 35 19 -17 37 -27 40 -22 16 26 17 94 2 144 -36 123 -163 203
-286 179z"/>
</g>
</svg>
